<svg width="535" height="139" viewBox="0 0 535 139" fill="none" xmlns="http://www.w3.org/2000/svg">
<path d="M40.224 110.144C38.752 110.912 37.184 111.296 35.52 111.296C33.472 111.04 31.488 110.528 29.568 109.76C27.712 108.992 26.336 108.064 25.44 106.976C24.928 103.84 24.512 100.96 24.192 98.336C23.872 95.712 23.616 93.248 23.424 90.944C23.232 88.576 23.104 86.336 23.04 84.224C22.976 82.048 22.944 79.872 22.944 77.696C22.944 74.816 22.976 71.776 23.04 68.576C23.104 65.376 23.168 61.984 23.232 58.4C23.36 54.752 23.456 50.88 23.52 46.784C23.584 42.624 23.616 38.112 23.616 33.248C24.448 33.248 25.696 33.504 27.36 34.016C29.024 34.464 30.656 35.008 32.256 35.648C33.92 36.288 35.392 36.96 36.672 37.664C37.952 38.304 38.656 38.848 38.784 39.296C38.144 41.088 37.568 43.424 37.056 46.304C36.608 49.184 36.224 52.384 35.904 55.904C35.648 59.424 35.456 63.136 35.328 67.04C35.2 70.944 35.136 74.816 35.136 78.656C35.136 81.536 35.168 84.128 35.232 86.432C35.296 88.672 35.36 90.72 35.424 92.576C35.552 94.368 35.712 96.064 35.904 97.664C36.096 99.2 36.32 100.736 36.576 102.272C38.368 96.832 40.32 91.392 42.432 85.952C44.608 80.512 46.816 75.296 49.056 70.304C51.36 65.248 53.632 60.544 55.872 56.192C58.112 51.84 60.224 48.064 62.208 44.864C64.256 41.6 66.08 39.04 67.68 37.184C69.28 35.264 70.592 34.24 71.616 34.112C72.32 34.24 73.056 34.528 73.824 34.976C74.656 35.36 75.424 35.84 76.128 36.416C76.832 36.992 77.472 37.632 78.048 38.336C78.624 39.04 79.072 39.744 79.392 40.448C77.024 41.28 74.464 43.232 71.712 46.304C69.024 49.376 66.304 53.088 63.552 57.44C60.8 61.728 58.112 66.432 55.488 71.552C52.928 76.608 50.592 81.568 48.48 86.432C46.432 91.296 44.672 95.84 43.2 100.064C41.728 104.288 40.736 107.648 40.224 110.144ZM90.432 65.216C91.072 65.216 91.808 65.344 92.64 65.6C93.536 65.792 94.336 66.08 95.04 66.464C95.744 66.784 96.32 67.136 96.768 67.52C97.28 67.904 97.536 68.256 97.536 68.576C96.256 71.264 95.072 73.984 93.984 76.736C92.896 79.424 91.968 82.016 91.2 84.512C90.432 87.008 89.824 89.344 89.376 91.52C88.992 93.696 88.8 95.584 88.8 97.184C88.8 98.976 88.992 100.48 89.376 101.696C89.76 102.848 90.4 103.68 91.296 104.192C90.528 104.704 89.536 105.12 88.32 105.44C87.104 105.76 86.016 105.92 85.056 105.92C81.6 105.92 79.872 103.552 79.872 98.816C79.872 95.168 81.088 90.176 83.52 83.84C82.24 86.784 80.768 89.568 79.104 92.192C77.44 94.752 75.744 97.024 74.016 99.008C72.288 100.992 70.528 102.624 68.736 103.904C67.008 105.12 65.408 105.856 63.936 106.112C61.568 105.984 59.648 104.864 58.176 102.752C56.704 100.576 55.968 97.824 55.968 94.496C55.968 90.912 56.736 87.136 58.272 83.168C59.808 79.2 61.76 75.52 64.128 72.128C66.56 68.736 69.184 65.92 72 63.68C74.816 61.376 77.536 60.16 80.16 60.032C80.8 60.224 81.504 60.608 82.272 61.184C83.104 61.76 83.872 62.432 84.576 63.2C85.344 63.968 85.984 64.768 86.496 65.6C87.008 66.368 87.296 67.04 87.36 67.616C84.8 68 82.144 69.248 79.392 71.36C76.704 73.472 74.24 76.032 72 79.04C69.824 81.984 68.032 85.152 66.624 88.544C65.216 91.936 64.512 95.104 64.512 98.048C64.512 99.264 64.96 100.032 65.856 100.352C67.712 99.968 69.856 98.4 72.288 95.648C74.72 92.832 77.664 88.512 81.12 82.688C81.76 81.536 82.464 80.256 83.232 78.848C84.064 77.44 84.896 75.968 85.728 74.432C86.56 72.896 87.36 71.36 88.128 69.824C88.96 68.224 89.728 66.688 90.432 65.216ZM129.526 65.792C129.462 67.008 129.238 68.288 128.854 69.632C128.534 70.912 128.118 72.096 127.606 73.184C127.094 74.208 126.55 75.072 125.974 75.776C125.398 76.48 124.854 76.832 124.342 76.832C123.638 76.768 123.222 76.288 123.094 75.392C123.094 75.2 123.158 74.912 123.286 74.528C123.478 74.08 123.67 73.6 123.862 73.088C124.054 72.576 124.214 72.064 124.342 71.552C124.534 71.04 124.63 70.592 124.63 70.208C124.63 69.312 124.406 68.576 123.958 68C123.574 67.36 123.03 67.04 122.326 67.04C119.766 67.04 117.814 68.64 116.47 71.84C115.126 75.04 114.454 79.744 114.454 85.952C114.454 86.592 114.486 86.976 114.55 87.104C115.894 87.04 117.078 87.008 118.102 87.008C119.19 86.944 120.246 86.912 121.27 86.912C121.334 87.04 121.366 87.296 121.366 87.68C121.366 88.256 121.238 88.672 120.982 88.928C119.51 89.248 118.326 89.536 117.43 89.792C116.598 89.984 115.958 90.176 115.51 90.368C115.062 90.56 114.774 90.784 114.646 91.04C114.582 91.232 114.55 91.52 114.55 91.904C114.55 92.416 114.55 92.928 114.55 93.44C114.614 93.952 114.646 94.592 114.646 95.36C114.646 100.736 113.174 105.056 110.23 108.32C107.35 111.584 103.318 113.472 98.1338 113.984C97.2378 113.92 96.3098 113.664 95.3498 113.216C94.3898 112.768 93.4618 112.192 92.5658 111.488C91.7338 110.784 90.9978 109.984 90.3578 109.088C89.7178 108.256 89.2698 107.392 89.0138 106.496C89.0138 104.064 89.5258 101.76 90.5498 99.584C91.5738 97.344 92.9498 95.392 94.6778 93.728C96.4698 92 98.5498 90.624 100.918 89.6C103.35 88.512 105.974 87.872 108.79 87.68C108.79 86.08 108.63 84.512 108.31 82.976C107.99 81.44 107.638 79.968 107.254 78.56C106.934 77.088 106.614 75.68 106.294 74.336C105.974 72.928 105.814 71.552 105.814 70.208C105.814 68.48 106.166 66.784 106.87 65.12C107.574 63.392 108.502 61.824 109.654 60.416C110.806 58.944 112.15 57.696 113.686 56.672C115.222 55.648 116.822 54.944 118.486 54.56C119.19 54.752 120.118 55.328 121.27 56.288C122.486 57.184 123.67 58.208 124.822 59.36C125.974 60.512 126.998 61.696 127.894 62.912C128.79 64.064 129.334 65.024 129.526 65.792ZM97.8458 109.568C99.3818 108.928 100.822 108 102.166 106.784C103.574 105.568 104.79 104.192 105.814 102.656C106.838 101.12 107.638 99.488 108.214 97.76C108.854 96.032 109.174 94.336 109.174 92.672C107.894 92.864 106.486 93.472 104.95 94.496C103.414 95.456 101.974 96.64 100.63 98.048C99.2858 99.392 98.1658 100.8 97.2698 102.272C96.3738 103.744 95.9258 105.024 95.9258 106.112C95.9258 107.52 96.5658 108.672 97.8458 109.568ZM156.713 65.216C157.353 65.216 158.089 65.344 158.921 65.6C159.817 65.792 160.617 66.08 161.321 66.464C162.025 66.784 162.601 67.136 163.049 67.52C163.561 67.904 163.817 68.256 163.817 68.576C162.537 71.264 161.353 73.984 160.265 76.736C159.177 79.424 158.249 82.016 157.481 84.512C156.713 87.008 156.105 89.344 155.657 91.52C155.273 93.696 155.081 95.584 155.081 97.184C155.081 98.976 155.273 100.48 155.657 101.696C156.041 102.848 156.681 103.68 157.577 104.192C156.809 104.704 155.817 105.12 154.601 105.44C153.385 105.76 152.297 105.92 151.337 105.92C147.881 105.92 146.153 103.552 146.153 98.816C146.153 95.168 147.369 90.176 149.801 83.84C148.521 86.784 147.049 89.568 145.385 92.192C143.721 94.752 142.025 97.024 140.297 99.008C138.569 100.992 136.809 102.624 135.017 103.904C133.289 105.12 131.689 105.856 130.217 106.112C127.849 105.984 125.929 104.864 124.457 102.752C122.985 100.576 122.249 97.824 122.249 94.496C122.249 90.912 123.017 87.136 124.553 83.168C126.089 79.2 128.041 75.52 130.409 72.128C132.841 68.736 135.465 65.92 138.281 63.68C141.097 61.376 143.817 60.16 146.441 60.032C147.081 60.224 147.785 60.608 148.553 61.184C149.385 61.76 150.153 62.432 150.857 63.2C151.625 63.968 152.265 64.768 152.777 65.6C153.289 66.368 153.577 67.04 153.641 67.616C151.081 68 148.425 69.248 145.673 71.36C142.985 73.472 140.521 76.032 138.281 79.04C136.105 81.984 134.313 85.152 132.905 88.544C131.497 91.936 130.793 95.104 130.793 98.048C130.793 99.264 131.241 100.032 132.137 100.352C133.993 99.968 136.137 98.4 138.569 95.648C141.001 92.832 143.945 88.512 147.401 82.688C148.041 81.536 148.745 80.256 149.513 78.848C150.345 77.44 151.177 75.968 152.009 74.432C152.841 72.896 153.641 71.36 154.409 69.824C155.241 68.224 156.009 66.688 156.713 65.216Z" fill="#102A42"/>
<path d="M228.447 52.256C228.447 55.776 227.551 59.136 225.759 62.336C224.031 65.536 221.663 68.352 218.655 70.784C215.711 73.152 212.223 75.04 208.191 76.448C204.223 77.856 199.999 78.56 195.519 78.56C193.919 78.56 192.639 78.368 191.679 77.984C190.783 77.536 189.759 76.704 188.607 75.488C185.407 82.464 182.783 88.896 180.735 94.784C178.751 100.608 177.183 106.272 176.031 111.776C173.599 111.2 171.615 110.176 170.079 108.704C168.543 107.296 167.135 105.504 165.855 103.328C166.495 102.112 167.263 100.512 168.159 98.528C169.055 96.544 170.143 94.112 171.423 91.232C172.703 88.288 174.175 84.8 175.839 80.768C177.567 76.672 179.583 71.904 181.887 66.464C182.911 63.968 183.807 61.792 184.575 59.936C185.343 58.08 186.015 56.352 186.591 54.752C187.167 53.088 187.679 51.456 188.127 49.856C188.639 48.256 189.151 46.496 189.663 44.576C186.655 45.536 183.871 46.656 181.311 47.936C178.815 49.216 176.735 50.56 175.071 51.968C174.495 51.584 173.887 51.008 173.247 50.24C172.671 49.472 172.127 48.64 171.615 47.744C171.103 46.784 170.655 45.824 170.271 44.864C169.887 43.904 169.663 43.04 169.599 42.272C171.455 40.992 173.759 39.808 176.511 38.72C179.263 37.632 182.207 36.704 185.343 35.936C188.479 35.104 191.711 34.464 195.039 34.016C198.431 33.568 201.663 33.344 204.735 33.344C208.383 33.344 211.679 33.824 214.623 34.784C217.567 35.68 220.063 36.96 222.111 38.624C224.159 40.288 225.727 42.272 226.815 44.576C227.903 46.88 228.447 49.44 228.447 52.256ZM211.359 40.736C208.927 40.736 206.431 40.928 203.871 41.312L205.023 43.04C204.383 43.872 203.583 45.12 202.623 46.784C201.663 48.448 200.607 50.464 199.455 52.832C198.303 55.136 197.023 57.728 195.615 60.608C194.271 63.488 192.831 66.528 191.295 69.728C196.287 69.728 200.831 69.28 204.927 68.384C209.023 67.424 212.511 66.144 215.391 64.544C218.335 62.88 220.607 60.96 222.207 58.784C223.871 56.608 224.703 54.272 224.703 51.776C224.703 48.448 223.583 45.792 221.343 43.808C219.103 41.76 215.775 40.736 211.359 40.736ZM215.321 102.08C215.641 100.224 216.185 97.792 216.953 94.784C217.785 91.712 218.745 88.48 219.833 85.088C220.921 81.632 222.073 78.176 223.289 74.72C224.505 71.264 225.689 68.16 226.841 65.408C227.673 63.424 228.409 61.888 229.049 60.8C229.689 59.648 230.393 58.688 231.161 57.92C232.057 58.048 232.985 58.272 233.945 58.592C234.905 58.912 235.833 59.296 236.729 59.744C237.625 60.192 238.425 60.672 239.129 61.184C239.833 61.632 240.377 62.08 240.761 62.528C239.033 64.576 237.497 66.912 236.153 69.536C234.873 72.16 233.561 75.52 232.217 79.616C235.673 76.544 238.713 73.6 241.337 70.784C244.025 67.968 246.521 64.832 248.825 61.376C249.209 61.056 249.881 60.896 250.841 60.896C251.737 60.896 252.601 61.056 253.433 61.376C254.265 61.632 254.841 62.016 255.161 62.528C254.009 65.6 253.433 68.64 253.433 71.648C253.433 74.464 253.849 76.576 254.681 77.984C254.617 78.368 254.169 79.104 253.337 80.192C252.569 81.28 251.705 82.304 250.745 83.264C249.017 82.368 247.481 81.152 246.137 79.616C244.793 78.016 243.801 76.288 243.161 74.432C240.153 76.544 237.593 78.624 235.481 80.672C233.369 82.656 231.545 84.896 230.009 87.392C228.537 89.824 227.257 92.64 226.169 95.84C225.145 99.04 224.153 102.848 223.193 107.264C222.617 107.2 221.913 106.976 221.081 106.592C220.313 106.272 219.513 105.856 218.681 105.344C217.913 104.832 217.209 104.288 216.569 103.712C215.929 103.136 215.513 102.592 215.321 102.08ZM261.671 107.36C258.023 106.976 255.111 105.376 252.935 102.56C250.759 99.744 249.671 96.16 249.671 91.808C249.671 89.248 250.055 86.592 250.823 83.84C251.591 81.088 252.679 78.432 254.087 75.872C255.495 73.248 257.159 70.784 259.079 68.48C260.999 66.176 263.079 64.192 265.319 62.528C268.839 59.904 272.135 58.592 275.207 58.592C277.255 59.68 279.271 61.952 281.255 65.408C281.575 65.408 281.863 65.408 282.119 65.408C282.375 65.344 282.663 65.312 282.983 65.312C286.375 65.312 288.071 68.32 288.071 74.336C288.071 78.368 287.399 82.208 286.055 85.856C284.775 89.44 282.951 92.704 280.583 95.648C278.279 98.592 275.495 101.088 272.231 103.136C269.031 105.12 265.511 106.528 261.671 107.36ZM266.567 77.12C265.479 78.592 264.455 80.192 263.495 81.92C262.535 83.648 261.703 85.408 260.999 87.2C260.295 88.928 259.751 90.624 259.367 92.288C258.983 93.888 258.791 95.328 258.791 96.608C258.791 98.144 259.047 99.616 259.559 101.024C260.071 102.432 260.647 103.232 261.287 103.424C264.167 102.784 266.791 101.6 269.159 99.872C271.591 98.08 273.671 95.872 275.399 93.248C277.191 90.624 278.567 87.648 279.527 84.32C280.551 80.992 281.063 77.44 281.063 73.664C281.063 72 280.967 70.688 280.775 69.728C280.583 68.768 280.263 67.936 279.815 67.232C276.999 68.064 274.471 69.408 272.231 71.264C270.055 73.12 268.167 75.072 266.567 77.12ZM307.646 59.168C308.926 59.168 310.398 59.552 312.062 60.32C313.726 61.088 315.198 62.08 316.478 63.296C316.158 60.736 315.742 58.336 315.23 56.096C314.782 53.792 314.078 51.424 313.118 48.992C312.222 46.56 311.006 43.904 309.47 41.024C307.934 38.144 306.014 34.848 303.71 31.136C303.902 30.56 304.318 29.888 304.958 29.12C305.662 28.352 306.43 27.648 307.262 27.008C308.158 26.304 309.054 25.696 309.95 25.184C310.91 24.672 311.806 24.352 312.638 24.224C314.43 26.208 316.126 28.704 317.726 31.712C319.326 34.656 320.734 37.856 321.95 41.312C323.166 44.704 324.094 48.224 324.734 51.872C325.438 55.52 325.79 59.008 325.79 62.336C325.79 65.664 325.406 69.088 324.638 72.608C323.934 76.128 322.91 79.584 321.566 82.976C320.286 86.304 318.782 89.472 317.054 92.48C315.326 95.488 313.438 98.176 311.39 100.544C309.406 102.912 307.326 104.832 305.15 106.304C302.974 107.84 300.798 108.8 298.622 109.184C294.206 108.672 290.814 107.232 288.446 104.864C286.142 102.56 284.99 99.36 284.99 95.264C284.99 93.088 285.31 90.72 285.95 88.16C286.654 85.6 287.55 83.072 288.638 80.576C289.79 78.016 291.102 75.552 292.574 73.184C294.11 70.752 295.71 68.576 297.374 66.656C299.102 64.736 300.83 63.104 302.558 61.76C304.286 60.416 305.982 59.552 307.646 59.168ZM297.854 105.344C300.094 104.576 302.334 102.88 304.574 100.256C306.814 97.632 308.83 94.56 310.622 91.04C312.414 87.456 313.854 83.648 314.942 79.616C316.094 75.52 316.67 71.584 316.67 67.808C316.67 66.72 316.67 66.048 316.67 65.792C316.67 65.536 316.638 65.28 316.574 65.024C315.038 65.664 313.406 66.752 311.678 68.288C309.95 69.824 308.222 71.616 306.494 73.664C304.766 75.648 303.134 77.824 301.598 80.192C300.062 82.56 298.686 84.928 297.47 87.296C296.254 89.664 295.294 91.936 294.59 94.112C293.886 96.288 293.534 98.208 293.534 99.872C293.534 103.072 294.974 104.896 297.854 105.344ZM355.37 65.216C356.01 65.216 356.746 65.344 357.578 65.6C358.474 65.792 359.274 66.08 359.978 66.464C360.682 66.784 361.258 67.136 361.706 67.52C362.218 67.904 362.474 68.256 362.474 68.576C361.194 71.264 360.01 73.984 358.922 76.736C357.834 79.424 356.906 82.016 356.138 84.512C355.37 87.008 354.762 89.344 354.314 91.52C353.93 93.696 353.738 95.584 353.738 97.184C353.738 98.976 353.93 100.48 354.314 101.696C354.698 102.848 355.338 103.68 356.234 104.192C355.466 104.704 354.474 105.12 353.258 105.44C352.042 105.76 350.954 105.92 349.994 105.92C346.538 105.92 344.81 103.552 344.81 98.816C344.81 95.168 346.026 90.176 348.458 83.84C347.178 86.784 345.706 89.568 344.042 92.192C342.378 94.752 340.682 97.024 338.954 99.008C337.226 100.992 335.466 102.624 333.674 103.904C331.946 105.12 330.346 105.856 328.874 106.112C326.506 105.984 324.586 104.864 323.114 102.752C321.642 100.576 320.906 97.824 320.906 94.496C320.906 90.912 321.674 87.136 323.21 83.168C324.746 79.2 326.698 75.52 329.066 72.128C331.498 68.736 334.122 65.92 336.938 63.68C339.753 61.376 342.474 60.16 345.098 60.032C345.738 60.224 346.442 60.608 347.21 61.184C348.042 61.76 348.81 62.432 349.514 63.2C350.282 63.968 350.922 64.768 351.434 65.6C351.946 66.368 352.234 67.04 352.298 67.616C349.738 68 347.082 69.248 344.33 71.36C341.642 73.472 339.178 76.032 336.938 79.04C334.762 81.984 332.97 85.152 331.562 88.544C330.154 91.936 329.45 95.104 329.45 98.048C329.45 99.264 329.898 100.032 330.794 100.352C332.65 99.968 334.794 98.4 337.226 95.648C339.658 92.832 342.602 88.512 346.058 82.688C346.698 81.536 347.402 80.256 348.17 78.848C349.002 77.44 349.834 75.968 350.666 74.432C351.498 72.896 352.298 71.36 353.066 69.824C353.898 68.224 354.666 66.688 355.37 65.216ZM365.498 70.016C365.498 68.864 365.562 67.776 365.69 66.752C365.882 65.728 366.234 64.864 366.746 64.16C367.258 63.392 367.962 62.816 368.858 62.432C369.754 61.984 370.938 61.76 372.41 61.76C373.306 61.76 374.298 61.856 375.386 62.048C376.538 62.24 377.37 62.592 377.882 63.104C377.626 64.192 377.402 65.152 377.21 65.984C377.082 66.816 376.954 67.744 376.826 68.768C376.762 69.728 376.698 70.912 376.634 72.32C376.57 73.664 376.506 75.424 376.442 77.6C376.314 81.952 376.09 85.856 375.77 89.312C375.514 92.704 374.874 96.096 373.85 99.488C373.85 99.744 373.946 99.872 374.138 99.872C375.098 99.168 376.186 98.144 377.402 96.8C378.618 95.456 379.898 93.952 381.242 92.288C382.586 90.56 383.93 88.736 385.274 86.816C386.618 84.896 387.866 83.008 389.018 81.152C390.554 78.464 392.25 75.104 394.106 71.072C395.962 67.04 397.498 62.72 398.714 58.112C399.098 58.112 399.578 58.208 400.154 58.4C400.794 58.528 401.402 58.72 401.978 58.976C402.618 59.168 403.162 59.392 403.61 59.648C404.122 59.904 404.474 60.128 404.666 60.32C404.538 63.072 403.866 65.888 402.65 68.768C401.498 71.648 400.09 74.432 398.426 77.12C396.762 79.808 395.002 82.336 393.146 84.704C391.29 87.072 389.594 89.12 388.058 90.848C384.986 94.432 381.882 97.632 378.746 100.448C375.674 103.264 371.994 105.984 367.706 108.608C366.042 107.968 364.73 107.104 363.77 106.016C362.81 104.992 362.33 103.904 362.33 102.752C362.33 101.984 362.49 101.12 362.81 100.16C363.194 99.136 363.61 97.856 364.058 96.32C364.506 94.72 364.89 92.736 365.21 90.368C365.594 88 365.786 84.992 365.786 81.344C365.786 79.232 365.722 77.12 365.594 75.008C365.53 72.832 365.498 71.168 365.498 70.016ZM412.802 57.44C414.466 57.952 416.034 59.104 417.506 60.896C418.978 62.624 420.066 64.544 420.77 66.656C420.066 68.384 418.978 70.464 417.506 72.896C416.034 75.328 414.562 77.824 413.09 80.384C411.618 82.88 410.274 85.28 409.058 87.584C407.906 89.824 407.234 91.68 407.042 93.152C408.066 92.064 409.186 90.816 410.402 89.408C411.682 87.936 412.898 86.496 414.05 85.088C415.266 83.616 416.386 82.304 417.41 81.152C418.434 79.936 419.234 79.04 419.81 78.464C421.026 77.184 422.466 75.712 424.13 74.048C425.794 72.32 427.522 70.72 429.314 69.248C431.17 67.712 433.026 66.432 434.882 65.408C436.738 64.32 438.434 63.776 439.97 63.776C441.634 63.776 443.01 64.352 444.098 65.504C445.25 66.592 446.146 67.744 446.786 68.96C446.786 69.088 446.53 69.28 446.018 69.536C445.57 69.728 444.898 70.336 444.002 71.36C443.106 72.512 442.082 74.112 440.93 76.16C439.842 78.144 438.754 80.32 437.666 82.688C436.642 84.992 435.778 87.36 435.074 89.792C434.37 92.224 434.018 94.432 434.018 96.416C434.018 98.016 434.21 99.04 434.594 99.488C435.042 99.936 435.65 100.16 436.417 100.16C437.122 100.16 437.858 100 438.625 99.68C439.394 99.36 440.002 99.2 440.45 99.2C440.706 99.328 440.898 99.616 441.026 100.064C441.218 100.448 441.314 100.8 441.314 101.12C440.802 101.568 440.194 102.016 439.49 102.464C438.786 102.912 438.05 103.328 437.281 103.712C436.514 104.096 435.746 104.416 434.978 104.672C434.274 104.928 433.634 105.056 433.058 105.056C431.202 105.056 429.666 104.768 428.45 104.192C427.298 103.68 426.37 102.976 425.666 102.08C425.026 101.184 424.578 100.128 424.322 98.912C424.066 97.632 423.938 96.288 423.938 94.88C423.938 94.112 424.002 93.248 424.13 92.288C424.258 91.328 424.514 90.208 424.898 88.928C425.282 87.584 425.826 86.016 426.53 84.224C427.234 82.368 428.13 80.16 429.218 77.6C429.09 77.6 428.226 78.048 426.626 78.944C425.026 79.84 423.298 81.216 421.442 83.072C418.434 85.952 415.714 88.8 413.281 91.616C410.914 94.432 408.482 97.568 405.986 101.024C404.578 103.008 403.33 104.672 402.242 106.016C401.218 107.424 400.322 108.352 399.554 108.8C398.21 108.032 397.218 106.944 396.578 105.536C395.938 104.192 395.458 102.784 395.138 101.312C395.138 100.096 395.298 98.56 395.618 96.704C396.002 94.848 396.482 92.8 397.058 90.56C397.698 88.256 398.466 85.856 399.362 83.36C400.258 80.864 401.25 78.368 402.338 75.872C404.77 70.24 406.978 65.824 408.962 62.624C411.01 59.424 412.29 57.696 412.802 57.44ZM443.189 97.568C443.189 96.992 443.221 96.288 443.285 95.456C443.413 94.56 443.605 93.408 443.861 92C444.117 90.528 444.437 88.768 444.821 86.72C445.269 84.672 445.813 82.208 446.453 79.328C446.581 78.688 446.869 77.664 447.317 76.256C447.765 74.848 448.341 73.376 449.045 71.84C449.813 70.24 450.709 68.704 451.733 67.232C452.821 65.76 454.101 64.672 455.573 63.968C456.661 64.224 458.101 64.896 459.893 65.984C461.685 67.008 463.221 68.448 464.501 70.304C463.029 71.968 461.781 73.632 460.757 75.296C459.797 76.96 458.901 78.688 458.069 80.48C457.301 82.272 456.565 84.128 455.861 86.048C455.221 87.968 454.485 89.984 453.653 92.096C452.949 93.888 452.309 95.744 451.733 97.664C451.157 99.52 450.837 101.152 450.773 102.56C450.773 103.712 450.741 104.512 450.677 104.96C450.677 105.472 450.517 105.728 450.197 105.728C449.941 105.728 449.429 105.568 448.661 105.248C447.893 104.928 447.093 104.448 446.261 103.808C445.493 103.104 444.789 102.24 444.149 101.216C443.509 100.192 443.189 98.976 443.189 97.568ZM461.525 55.904C461.525 55.52 461.621 54.944 461.813 54.176C461.493 53.856 461.205 53.376 460.949 52.736C460.757 52.096 460.661 51.52 460.661 51.008C460.661 50.432 460.725 49.664 460.853 48.704C461.045 47.68 461.269 46.592 461.525 45.44C461.781 44.288 462.101 43.104 462.485 41.888C462.869 40.608 463.253 39.456 463.637 38.432C464.405 38.432 465.333 38.656 466.421 39.104C467.573 39.488 468.725 40.032 469.877 40.736C471.029 41.376 472.085 42.112 473.045 42.944C474.005 43.712 474.741 44.448 475.253 45.152C474.549 45.856 473.621 46.848 472.469 48.128C471.317 49.344 470.197 50.656 469.109 52.064C468.021 53.408 467.029 54.688 466.133 55.904C465.237 57.12 464.661 57.984 464.405 58.496C463.637 58.368 462.965 58.048 462.389 57.536C461.813 56.96 461.525 56.416 461.525 55.904ZM460.357 87.104C460.357 83.456 461.093 79.936 462.565 76.544C464.101 73.088 466.085 70.048 468.517 67.424C471.013 64.736 473.829 62.592 476.965 60.992C480.165 59.328 483.461 58.496 486.853 58.496C490.181 58.496 492.741 59.328 494.533 60.992C496.325 62.656 497.221 65.024 497.221 68.096C497.221 69.568 496.997 71.008 496.549 72.416C496.165 73.76 495.621 74.976 494.917 76.064C494.277 77.152 493.509 78.048 492.613 78.752C491.717 79.392 490.821 79.712 489.925 79.712C489.157 79.712 488.357 79.488 487.525 79.04C486.757 78.528 486.117 77.888 485.605 77.12C489.893 73.216 492.037 69.664 492.037 66.464C492.037 64.608 491.301 63.68 489.829 63.68C488.549 63.68 486.949 64.288 485.029 65.504C483.109 66.72 481.253 68.32 479.461 70.304C476.709 73.376 474.597 76.8 473.125 80.576C471.717 84.288 471.013 88.192 471.013 92.288C471.013 97.472 472.165 100.576 474.469 101.6C475.429 101.472 476.549 101.184 477.829 100.736C479.109 100.288 480.485 99.712 481.957 99.008C483.429 98.24 484.933 97.376 486.469 96.416C488.069 95.456 489.605 94.432 491.077 93.344C491.333 93.536 491.557 93.824 491.749 94.208C491.941 94.592 492.037 94.944 492.037 95.264C490.949 96.608 489.701 97.92 488.293 99.2C486.885 100.48 485.413 101.664 483.877 102.752C482.341 103.776 480.837 104.64 479.365 105.344C477.957 106.112 476.709 106.592 475.621 106.784C473.509 106.592 471.525 105.92 469.669 104.768C467.813 103.68 466.181 102.24 464.773 100.448C463.429 98.656 462.341 96.608 461.509 94.304C460.741 92 460.357 89.6 460.357 87.104ZM527.213 65.216C527.853 65.216 528.589 65.344 529.421 65.6C530.317 65.792 531.117 66.08 531.821 66.464C532.525 66.784 533.101 67.136 533.549 67.52C534.061 67.904 534.317 68.256 534.317 68.576C533.037 71.264 531.853 73.984 530.765 76.736C529.677 79.424 528.749 82.016 527.981 84.512C527.213 87.008 526.605 89.344 526.157 91.52C525.773 93.696 525.581 95.584 525.581 97.184C525.581 98.976 525.773 100.48 526.157 101.696C526.541 102.848 527.181 103.68 528.077 104.192C527.309 104.704 526.317 105.12 525.101 105.44C523.885 105.76 522.797 105.92 521.837 105.92C518.381 105.92 516.653 103.552 516.653 98.816C516.653 95.168 517.869 90.176 520.301 83.84C519.021 86.784 517.549 89.568 515.885 92.192C514.221 94.752 512.525 97.024 510.797 99.008C509.069 100.992 507.309 102.624 505.517 103.904C503.789 105.12 502.189 105.856 500.717 106.112C498.349 105.984 496.429 104.864 494.957 102.752C493.485 100.576 492.749 97.824 492.749 94.496C492.749 90.912 493.517 87.136 495.053 83.168C496.589 79.2 498.541 75.52 500.909 72.128C503.341 68.736 505.965 65.92 508.781 63.68C511.597 61.376 514.317 60.16 516.941 60.032C517.581 60.224 518.285 60.608 519.053 61.184C519.885 61.76 520.653 62.432 521.357 63.2C522.125 63.968 522.765 64.768 523.277 65.6C523.789 66.368 524.077 67.04 524.141 67.616C521.581 68 518.925 69.248 516.173 71.36C513.485 73.472 511.021 76.032 508.781 79.04C506.605 81.984 504.813 85.152 503.405 88.544C501.997 91.936 501.293 95.104 501.293 98.048C501.293 99.264 501.741 100.032 502.637 100.352C504.493 99.968 506.637 98.4 509.069 95.648C511.501 92.832 514.445 88.512 517.901 82.688C518.541 81.536 519.245 80.256 520.013 78.848C520.845 77.44 521.677 75.968 522.509 74.432C523.341 72.896 524.141 71.36 524.909 69.824C525.741 68.224 526.509 66.688 527.213 65.216Z" fill="#198754"/>
</svg>
